<?xml version="1.0" encoding="utf-8"?>
<!-- Generator: Adobe Illustrator 25.2.0, SVG Export Plug-In . SVG Version: 6.00 Build 0)  -->
<svg version="1.1" id="Layer_1" xmlns="http://www.w3.org/2000/svg" xmlns:xlink="http://www.w3.org/1999/xlink" x="0px" y="0px"
	 viewBox="0 0 500 500" style="enable-background:new 0 0 500 500;" xml:space="preserve">
<style type="text/css">
	.st0{fill:#364676;}
	.st1{fill:url(#SVGID_1_);}
	.st2{fill:url(#SVGID_2_);}
	.st3{fill:url(#SVGID_3_);}
	.st4{fill:url(#SVGID_4_);}
	.st5{fill:url(#SVGID_5_);}
	.st6{fill:url(#SVGID_6_);}
	.st7{fill:url(#SVGID_7_);}
	.st8{fill:url(#SVGID_8_);}
	.st9{fill:url(#SVGID_9_);}
	.st10{fill:url(#SVGID_10_);}
	.st11{fill:url(#SVGID_11_);}
	.st12{fill:url(#SVGID_12_);}
	.st13{fill:none;stroke:#FFFFFF;stroke-width:2.4185;stroke-miterlimit:10;}
</style>
<rect x="215.5" y="252.1" transform="matrix(0.9963 -8.569081e-02 8.569081e-02 0.9963 -25.4536 23.1514)" class="st0" width="83" height="112"/>
<g id="XMLID_2_">
	<g>
		<radialGradient id="SVGID_1_" cx="247.9503" cy="276.4521" r="33.8363" gradientUnits="userSpaceOnUse">
			<stop  offset="0" style="stop-color:#212B3D"/>
			<stop  offset="0.569" style="stop-color:#1F293B"/>
			<stop  offset="0.774" style="stop-color:#192235"/>
			<stop  offset="0.9196" style="stop-color:#0E1729"/>
			<stop  offset="1" style="stop-color:#040C1F"/>
		</radialGradient>
		<path class="st1" d="M274.4,277.7c7.9-1.8,13.7-6,17.4-9.4c-4.8,11.3-10.8,15.8-15.5,17.7c-0.8,0.3-1.6,0.6-2.4,0.8
			c-2.9,0.7-5.2,0.8-6.9,0.8c-1,0-1.9-0.1-2.9-0.2c-0.3-0.1-0.7-0.1-1-0.1c-1.3-0.2-2.5-0.5-3.8-0.8c-2.3-0.6-4.6-1.3-6.8-2.1
			c-0.4-0.1-0.8-0.3-1.2-0.4c-0.4-0.2-0.9-0.3-1.3-0.5c-2.1-0.8-4.2-1.5-6.4-2.3c0,0-0.1,0-0.1-0.1c-1.3-0.5-2.4-0.9-3.4-1.2
			c-2.7-0.9-4.9-1.4-7.7-1.8c-0.2,0-0.4-0.1-0.6-0.1c-1.7-0.2-3.5-0.4-5.2-0.3c-0.1,0-0.2,0-0.3,0c-2.8,0.1-5.5,0.5-8.1,1.4
			c-0.5,0.2-1.1,0.4-1.6,0.6c-5.2,2.1-8.7,5.5-10.9,7.9c3.1-13.3,8.4-18.3,12.9-20.2C233.7,260.6,250.9,282.9,274.4,277.7z"/>
		<radialGradient id="SVGID_2_" cx="249.5542" cy="296.441" r="26.6566" gradientUnits="userSpaceOnUse">
			<stop  offset="0" style="stop-color:#FFFFFB"/>
			<stop  offset="0.442" style="stop-color:#FDFDF9"/>
			<stop  offset="0.6012" style="stop-color:#F6F6F3"/>
			<stop  offset="0.7147" style="stop-color:#EBEBE8"/>
			<stop  offset="0.8065" style="stop-color:#DADAD8"/>
			<stop  offset="0.885" style="stop-color:#C4C5C3"/>
			<stop  offset="0.9534" style="stop-color:#A9ABAB"/>
			<stop  offset="1" style="stop-color:#929495"/>
		</radialGradient>
		<path class="st2" d="M273.9,286.8c0.1,0,0.1,0,0.2,0c0.9,2.4,3,9.1,0.8,17.1c-2.7,9.7-10,14.7-12.4,16.2c-2.1-0.7-4.6-1-6.2-1.2
			c-1.2-0.2-2.7-0.3-4.7-0.2c0,0-0.1,0-0.1,0c-0.4,0-0.8,0-1.1,0c-4.9,0.2-9,1.3-11.7,2.4c-2.4-1.3-10.4-6.1-14.3-16.1
			c-0.6-1.6-3.2-8.6-1.5-17.5c0.8-4.3,2.4-7.6,3.5-9.7c1.2,0,3,0.1,5.2,0.3c0.2,0,0.4,0,0.6,0.1c0.7,0.1,1.3,0.2,2,0.3
			c2.7,0.5,5.3,1.3,7.9,2.2c0.4,0.1,0.8,0.3,1.2,0.4c0.1,0,0.1,0,0.1,0.1c1.8,0.6,3.9,1.4,6.4,2.3c0.4,0.2,0.9,0.3,1.3,0.5
			c0.2,0.1,0.4,0.2,0.6,0.2c0.2,0.1,0.4,0.1,0.6,0.2c2.2,0.8,4.5,1.5,6.8,2.1c0.2,0.1,0.5,0.1,0.7,0.2c1,0.2,2,0.5,3.1,0.6
			c0.3,0.1,0.7,0.1,1,0.1c1.4,0.2,2.8,0.3,4.1,0.3C270.2,287.6,272.1,287.3,273.9,286.8z"/>
		<radialGradient id="SVGID_3_" cx="269.0247" cy="287.0139" r="3.467" gradientUnits="userSpaceOnUse">
			<stop  offset="0" style="stop-color:#212B3D"/>
			<stop  offset="0.569" style="stop-color:#1F293B"/>
			<stop  offset="0.774" style="stop-color:#192235"/>
			<stop  offset="0.9196" style="stop-color:#0E1729"/>
			<stop  offset="1" style="stop-color:#040C1F"/>
		</radialGradient>
		<path class="st3" d="M273.9,286.8c-1.8,0.5-3.7,0.8-5.6,0.8c-1.4,0-2.8-0.1-4.1-0.3c1,0.1,1.9,0.2,2.9,0.2
			C268.7,287.6,271.1,287.5,273.9,286.8z"/>
		<radialGradient id="SVGID_4_" cx="261.211" cy="286.8008" r="1.3627" gradientUnits="userSpaceOnUse">
			<stop  offset="0" style="stop-color:#212B3D"/>
			<stop  offset="0.569" style="stop-color:#1F293B"/>
			<stop  offset="0.774" style="stop-color:#192235"/>
			<stop  offset="0.9196" style="stop-color:#0E1729"/>
			<stop  offset="1" style="stop-color:#040C1F"/>
		</radialGradient>
		<path class="st4" d="M263.1,287.2c-1-0.2-2-0.4-3.1-0.6c-0.2-0.1-0.5-0.1-0.7-0.2C260.6,286.7,261.8,287,263.1,287.2z"/>
		<radialGradient id="SVGID_5_" cx="255.9114" cy="285.3471" r="2.5265" gradientUnits="userSpaceOnUse">
			<stop  offset="0" style="stop-color:#212B3D"/>
			<stop  offset="0.569" style="stop-color:#1F293B"/>
			<stop  offset="0.774" style="stop-color:#192235"/>
			<stop  offset="0.9196" style="stop-color:#0E1729"/>
			<stop  offset="1" style="stop-color:#040C1F"/>
		</radialGradient>
		<path class="st5" d="M252.5,284.3c2.2,0.8,4.5,1.5,6.8,2.1C257,285.8,254.7,285.1,252.5,284.3z"/>
		<radialGradient id="SVGID_6_" cx="237.8499" cy="279.6034" r="4.0702" gradientUnits="userSpaceOnUse">
			<stop  offset="0" style="stop-color:#212B3D"/>
			<stop  offset="0.569" style="stop-color:#1F293B"/>
			<stop  offset="0.774" style="stop-color:#192235"/>
			<stop  offset="0.9196" style="stop-color:#0E1729"/>
			<stop  offset="1" style="stop-color:#040C1F"/>
		</radialGradient>
		<path class="st6" d="M243.4,281.1c-0.4-0.1-0.8-0.3-1.2-0.4c-2.6-0.9-5.2-1.6-7.9-2.2c-0.7-0.1-1.3-0.3-2-0.3
			c2.8,0.3,5,0.9,7.7,1.8C241,280.2,242.2,280.6,243.4,281.1z"/>
		<radialGradient id="SVGID_7_" cx="257.1287" cy="319.4287" r="3.87" gradientUnits="userSpaceOnUse">
			<stop  offset="0" style="stop-color:#212B3D"/>
			<stop  offset="0.569" style="stop-color:#1F293B"/>
			<stop  offset="0.774" style="stop-color:#192235"/>
			<stop  offset="0.9196" style="stop-color:#0E1729"/>
			<stop  offset="1" style="stop-color:#040C1F"/>
		</radialGradient>
		<path class="st7" d="M262.5,320.1c-0.2,0.1-0.3,0.2-0.4,0.2c-0.6-0.2-1.5-0.5-2.6-0.8c-0.9-0.2-3.9-0.9-7.8-0.9
			c1.9-0.1,3.5,0.1,4.7,0.2C257.9,319.1,260.4,319.4,262.5,320.1z"/>
		<radialGradient id="SVGID_8_" cx="241.5704" cy="329.0378" r="18.6811" gradientUnits="userSpaceOnUse">
			<stop  offset="0" style="stop-color:#212B3D"/>
			<stop  offset="0.569" style="stop-color:#1F293B"/>
			<stop  offset="0.774" style="stop-color:#192235"/>
			<stop  offset="0.9196" style="stop-color:#0E1729"/>
			<stop  offset="1" style="stop-color:#040C1F"/>
		</radialGradient>
		<path class="st8" d="M216.4,334.6c16.4-13,28.2-15.7,35.2-16c0,0,0.1,0,0.1,0c3.9,0,6.9,0.7,7.8,0.9c1.1,0.3,2,0.5,2.6,0.8
			c0.1-0.1,0.2-0.1,0.4-0.2c2,0.6,3.6,1.5,3.9,2.9c0.4,2.3-3,5.5-6.5,6c-3.8,0.6-7-2.2-8.5-3.2C246.9,322.7,237.6,322.3,216.4,334.6
			z"/>
	</g>
	<g>
	</g>
</g>
<radialGradient id="SVGID_9_" cx="278.4502" cy="270.4312" r="17.0616" gradientTransform="matrix(0.8963 -0.4434 0.4434 0.8963 -119.6334 180.7856)" gradientUnits="userSpaceOnUse">
	<stop  offset="0" style="stop-color:#212B3D"/>
	<stop  offset="0.569" style="stop-color:#1F293B"/>
	<stop  offset="0.774" style="stop-color:#192235"/>
	<stop  offset="0.9196" style="stop-color:#0E1729"/>
	<stop  offset="1" style="stop-color:#040C1F"/>
</radialGradient>
<path class="st9" d="M242.3,280.7c2.8,0.7,5.8,1.7,9,2.8c2,0.7,3.8,1.5,5.6,2.2c1.4,2,5.4,8,5.4,16.6c0,8.7-4,14.8-5.4,16.7
	c-1.5-0.2-3.2-0.4-5.2-0.4c-1.8,0-3.5,0.1-4.9,0.3c-2.1-2.2-6.6-7.3-8.3-15.2C235.9,292.1,241,282.9,242.3,280.7z"/>
<radialGradient id="SVGID_10_" cx="250.0308" cy="306.2015" r="101.6216" gradientUnits="userSpaceOnUse">
	<stop  offset="0" style="stop-color:#354677"/>
	<stop  offset="0.256" style="stop-color:#334474"/>
	<stop  offset="0.4507" style="stop-color:#2E3E6A"/>
	<stop  offset="0.625" style="stop-color:#25335A"/>
	<stop  offset="0.7874" style="stop-color:#192543"/>
	<stop  offset="0.9403" style="stop-color:#091226"/>
	<stop  offset="1" style="stop-color:#020918"/>
</radialGradient>
<path class="st10" d="M349,212.2c-16.2,21.1-31.4,27.7-42.6,29.7c-6.1,1.1-12.4,1-18.4-0.1c-6.1-1.1-12-3.2-17.5-5.7
	c-6.2-2.8-12-6.1-17.8-9.4c-6.1-3.6-12.1-7.2-18.3-10.7c-5.2-2.9-10.6-5.7-16.2-7.9c-5.5-2.2-11.2-4-17.2-5.1
	c-6.1-1.1-12.4-1.3-18.6-0.5c-1.3,0.2-2.6,0.3-3.8,0.6c-12.1,2.2-21.5,7.4-27.5,11.5c0.2,0.8,0.4,1.6,0.8,2.4
	c8.9,20.8,10.1,42.3,7.2,64.6c-1.6,12.5-3.1,25.3-2.1,37.8c1.5,18.5,12.7,32.7,25.4,45.5c18.7,19,41,33.1,64.5,45.1
	c1.6,0.8,4.4,0.8,6,0c22.1-11.3,42.8-24.7,61.1-41.7c23.5-21.7,34.2-47.3,27.7-79.7c-5-24.9-3.7-49.7,6.7-73.5
	C348.8,214.2,349,213.2,349,212.2z M264.2,302.5c2.5,14.4,7,42.4,8.2,49.7c0.1,0.9-0.6,1.7-1.6,1.7l-41,0c-1.2,0-2.1-1-2-2.1
	c0.7-4.5,1.4-8.9,2.1-13.3c2-12.3,4-24.5,6.2-36.8c0.5-2.9-0.1-4.8-2.5-7c-9-8.4-8.8-21.7,0.2-30.1c8.9-8.3,23.4-8.3,32.4,0
	c9,8.2,9.3,21.7,0.3,30C263.9,297.2,263.6,299.4,264.2,302.5z"/>
<g>
	
		<radialGradient id="SVGID_11_" cx="251.2227" cy="134.3532" r="70.1848" gradientTransform="matrix(1 0 0 0.877 -1.130823e-05 32.6441)" gradientUnits="userSpaceOnUse">
		<stop  offset="1.065558e-07" style="stop-color:#354677"/>
		<stop  offset="0.1719" style="stop-color:#31416F"/>
		<stop  offset="0.4348" style="stop-color:#25335A"/>
		<stop  offset="0.754" style="stop-color:#131D37"/>
		<stop  offset="1" style="stop-color:#020918"/>
	</radialGradient>
	<path class="st11" d="M322.3,209.3c-2.6,0.9-5.5,1.5-8.5,1.7c-3,0.3-6.1,0.1-9.6,0c0,0,0,0,0,0c0-0.4,0-7.1-0.1-35.3
		c0-9.8-3.2-19.2-9.4-28.1c-10.4-14.9-25-27.7-44.7-39.1c-16.7,9.6-30,20.6-40.6,33.5c-7.8,9.6-9.8,10.4-10.4,22.9l0,0
		c-6.4,0.6-12.8,1.9-18.9,3.9h0c0.8-15.3,4.4-24.9,15.3-38.3c12.5-15.4,28.3-28.2,48.2-39.3c3.1-1.7,8.5-2.5,12.7-0.2
		c23.5,13.1,40.9,28.2,53.3,46.1c8.3,12,12.6,24.9,12.6,38.4C322.4,204.6,322.3,209.2,322.3,209.3z"/>
</g>
<radialGradient id="SVGID_12_" cx="249.8718" cy="203.291" r="73.971" gradientUnits="userSpaceOnUse">
	<stop  offset="0" style="stop-color:#212B3D"/>
	<stop  offset="0.569" style="stop-color:#1F293B"/>
	<stop  offset="0.774" style="stop-color:#192235"/>
	<stop  offset="0.9196" style="stop-color:#0E1729"/>
	<stop  offset="1" style="stop-color:#040C1F"/>
</radialGradient>
<path class="st12" d="M150.5,208.1c13.7-26.4,27.9-34.4,38.6-36.6c36.8-7.6,63.1,46.2,117.2,45.4c18.1-0.3,33.1-6.6,43-12
	c-16.4,21.5-31.8,28.2-43,30.2c-6.1,1.1-12.4,1-18.4-0.1c-6.1-1.1-12-3.2-17.5-5.7c-6.2-2.8-12-6.1-17.8-9.4
	c-6.1-3.6-12.1-7.2-18.3-10.7c-5.2-2.9-10.6-5.7-16.2-7.9c-5.5-2.2-11.2-4-17.2-5.1c-6.1-1.1-12.4-1.3-18.6-0.5
	c-1.3,0.2-2.6,0.3-3.8,0.6C166,198.5,156.4,204,150.5,208.1z"/>
<path class="st13" d="M270.7,353.9c1,0,1.8-0.8,1.6-1.7c-1.1-7.3-5.7-35.3-8.2-49.7c-0.5-3-0.3-5.3,2.4-7.8c9-8.4,8.7-21.8-0.3-30
	c-9-8.2-23.6-8.2-32.4,0c-9,8.4-9.2,21.6-0.2,30.1c2.3,2.2,3,4.1,2.5,7c-2.2,12.2-4.2,24.5-6.2,36.8c-0.7,4.4-1.4,8.8-2.1,13.3
	c-0.2,1.1,0.7,2.1,2,2.1L270.7,353.9z"/>
</svg>
