<?xml version="1.0" standalone="no"?>
<!DOCTYPE svg PUBLIC "-//W3C//DTD SVG 20010904//EN"
 "http://www.w3.org/TR/2001/REC-SVG-20010904/DTD/svg10.dtd">
<svg version="1.0" xmlns="http://www.w3.org/2000/svg"
 width="700.000000pt" height="700.000000pt" viewBox="0 0 700.000000 700.000000"
 preserveAspectRatio="xMidYMid meet">
<metadata>
Created by potrace 1.14, written by Peter Selinger 2001-2017
</metadata>
<g transform="translate(0.000000,700.000000) scale(0.100000,-0.100000)"
fill="#000000" stroke="none">
<path d="M3458 5739 c-38 -9 -180 -91 -288 -167 -178 -125 -353 -291 -465
-440 -77 -103 -116 -174 -144 -262 -19 -61 -45 -219 -38 -227 2 -2 39 6 83 16
43 11 102 23 130 27 l51 6 5 62 c3 38 15 80 31 111 36 70 208 268 313 359 80
70 345 256 364 256 4 0 68 -40 141 -89 254 -169 449 -369 543 -557 65 -131 69
-157 74 -486 l4 -297 33 -7 c39 -7 195 12 208 25 5 5 7 146 5 317 -4 301 -5
311 -31 397 -100 326 -420 676 -832 910 -87 49 -130 60 -187 46z"/>
<path d="M2670 4603 c-194 -32 -384 -195 -530 -455 l-32 -58 69 40 c148 87
307 132 473 134 123 1 208 -14 344 -61 124 -43 190 -76 439 -220 320 -185 433
-237 580 -267 277 -58 517 32 761 284 59 62 106 114 103 116 -2 2 -37 -11 -78
-30 -181 -83 -346 -120 -534 -119 -290 1 -480 77 -899 357 -136 91 -284 184
-329 206 -130 64 -264 90 -367 73z"/>
<path d="M2490 4155 c-36 -8 -99 -26 -140 -41 -75 -26 -214 -97 -225 -114 -3
-5 12 -62 34 -127 48 -143 67 -231 82 -388 12 -133 8 -231 -23 -500 -26 -227
-27 -462 -4 -560 23 -96 91 -235 163 -330 208 -280 601 -589 1016 -801 90 -46
96 -47 133 -36 105 31 487 271 688 432 322 256 490 483 562 755 37 138 39 351
5 535 -62 338 -41 645 63 921 20 53 36 102 36 108 0 7 -22 -14 -48 -46 -144
-172 -319 -293 -488 -337 -249 -64 -468 -3 -887 247 -374 224 -535 285 -772
293 -91 3 -149 -1 -195 -11z m1154 -788 c199 -91 256 -315 122 -481 -23 -28
-45 -57 -50 -64 -4 -7 21 -181 55 -387 50 -305 59 -377 49 -390 -19 -22 -621
-23 -640 0 -10 12 0 87 49 390 34 206 59 381 55 387 -5 7 -27 36 -50 64 -148
182 -59 434 175 501 66 18 170 9 235 -20z"/>
<path d="M3384 3340 c-69 -28 -132 -84 -160 -144 -37 -79 -35 -82 49 -96 39
-7 82 -16 94 -21 l21 -8 -26 -63 c-22 -54 -26 -78 -26 -163 0 -114 21 -183 80
-260 19 -25 34 -47 34 -48 0 -2 -25 -9 -55 -16 -49 -11 -59 -11 -81 4 -14 9
-27 15 -29 13 -4 -4 -75 -443 -75 -463 0 -13 40 -15 290 -15 225 0 290 3 290
13 0 6 -16 114 -36 240 -26 162 -40 227 -50 227 -7 0 -15 -4 -18 -8 -6 -10
-76 -3 -76 8 0 4 12 34 27 66 24 52 28 71 28 159 0 91 -3 106 -31 166 l-31 65
61 -13 c95 -20 115 -17 127 15 30 78 5 191 -60 265 -75 85 -236 121 -347 77z"/>
</g>
</svg>
